<svg width="640" height="360" viewBox="0 0 640 360" fill="none" xmlns="http://www.w3.org/2000/svg">
<g clip-path="url(#clip0_35_6878)">
<rect width="640" height="360" rx="10" fill="#3563E9"/>
<path d="M3 300L-22 240H3H28L53 300L28 360H3H-22L3 300Z" fill="white" fill-opacity="0.06"/>
<path d="M94 300L69 240H94H119L144 300L119 360H94H69L94 300Z" fill="white" fill-opacity="0.06"/>
<path d="M185 300L160 240H185H210L235 300L210 360H185H160L185 300Z" fill="white" fill-opacity="0.06"/>
<path d="M276 300L251 240H276H301L326 300L301 360H276H251L276 300Z" fill="white" fill-opacity="0.06"/>
<path d="M367 300L342 240H367H392L417 300L392 360H367H342L367 300Z" fill="white" fill-opacity="0.06"/>
<path d="M458 300L433 240H458H483L508 300L483 360H458H433L458 300Z" fill="white" fill-opacity="0.06"/>
<path d="M549 300L524 240H549H574L599 300L574 360H549H524L549 300Z" fill="white" fill-opacity="0.06"/>
<path d="M640 300L615 240H640H665L690 300L665 360H640H615L640 300Z" fill="white" fill-opacity="0.06"/>
<path d="M48 180L23 120H48H73L98 180L73 240H48H23L48 180Z" fill="white" fill-opacity="0.06"/>
<path d="M139 180L114 120H139H164L189 180L164 240H139H114L139 180Z" fill="white" fill-opacity="0.06"/>
<path d="M230 180L205 120H230H255L280 180L255 240H230H205L230 180Z" fill="white" fill-opacity="0.06"/>
<path d="M321 180L296 120H321H346L371 180L346 240H321H296L321 180Z" fill="white" fill-opacity="0.06"/>
<path d="M412 180L387 120H412H437L462 180L437 240H412H387L412 180Z" fill="white" fill-opacity="0.06"/>
<path d="M503 180L478 120H503H528L553 180L528 240H503H478L503 180Z" fill="white" fill-opacity="0.06"/>
<path d="M594 180L569 120H594H619L644 180L619 240H594H569L594 180Z" fill="white" fill-opacity="0.06"/>
<path d="M2 60L-23 0H2H27L52 60L27 120H2H-23L2 60Z" fill="white" fill-opacity="0.06"/>
<path d="M93 60L68 0H93H118L143 60L118 120H93H68L93 60Z" fill="white" fill-opacity="0.06"/>
<path d="M184 60L159 0H184H209L234 60L209 120H184H159L184 60Z" fill="white" fill-opacity="0.06"/>
<path d="M275 60L250 0H275H300L325 60L300 120H275H250L275 60Z" fill="white" fill-opacity="0.06"/>
<path d="M366 60L341 0H366H391L416 60L391 120H366H341L366 60Z" fill="white" fill-opacity="0.06"/>
<path d="M457 60L432 0H457H482L507 60L482 120H457H432L457 60Z" fill="white" fill-opacity="0.06"/>
<path d="M548 60L523 0H548H573L598 60L573 120H548H523L548 60Z" fill="white" fill-opacity="0.06"/>
<path d="M639 60L614 0H639H664L689 60L664 120H639H614L639 60Z" fill="white" fill-opacity="0.06"/>
</g>
<defs>
<clipPath id="clip0_35_6878">
<rect width="640" height="360" rx="10" fill="white"/>
</clipPath>
</defs>
</svg>
