<svg width="132" height="108" viewBox="0 0 132 108" fill="none" xmlns="http://www.w3.org/2000/svg">
<g clip-path="url(#clip0_35_8236)">
<rect width="132" height="108" rx="8" fill="#3563E9"/>
<path d="M0.9802 69L-5.21216 54H0.9802H7.17256L13.3649 69L7.17256 84H0.9802H-5.21216L0.9802 69Z" fill="white" fill-opacity="0.06"/>
<path d="M23.5204 69L17.3281 54H23.5204H29.7128L35.9051 69L29.7128 84H23.5204H17.3281L23.5204 69Z" fill="white" fill-opacity="0.06"/>
<path d="M46.0606 69L39.8683 54H46.0606H52.253L58.4454 69L52.253 84H46.0606H39.8683L46.0606 69Z" fill="white" fill-opacity="0.06"/>
<path d="M68.6007 69L62.4084 54H68.6007H74.7931L80.9855 69L74.7931 84H68.6007H62.4084L68.6007 69Z" fill="white" fill-opacity="0.06"/>
<path d="M91.141 69L84.9486 54H91.141H97.3333L103.526 69L97.3333 84H91.141H84.9486L91.141 69Z" fill="white" fill-opacity="0.06"/>
<path d="M113.681 69L107.489 54H113.681H119.873L126.066 69L119.873 84H113.681H107.489L113.681 69Z" fill="white" fill-opacity="0.06"/>
<path d="M136.221 69L130.029 54H136.221H142.414L148.606 69L142.414 84H136.221H130.029L136.221 69Z" fill="white" fill-opacity="0.06"/>
<path d="M-10.4137 39L-16.606 24H-10.4137H-4.2213L1.97106 39L-4.2213 54H-10.4137H-16.606L-10.4137 39Z" fill="white" fill-opacity="0.06"/>
<path d="M12.1264 39L5.93408 24H12.1264H18.3188L24.5112 39L18.3188 54H12.1264H5.93408L12.1264 39Z" fill="white" fill-opacity="0.06"/>
<path d="M34.6667 39L28.4743 24H34.6667H40.859L47.0514 39L40.859 54H34.6667H28.4743L34.6667 39Z" fill="white" fill-opacity="0.06"/>
<path d="M57.2069 39L51.0145 24H57.2069H63.3992L69.5916 39L63.3992 54H57.2069H51.0145L57.2069 39Z" fill="white" fill-opacity="0.06"/>
<path d="M79.747 39L73.5546 24H79.747H85.9393L92.1317 39L85.9393 54H79.747H73.5546L79.747 39Z" fill="white" fill-opacity="0.06"/>
<path d="M102.287 39L96.0948 24H102.287H108.48L114.672 39L108.48 54H102.287H96.0948L102.287 39Z" fill="white" fill-opacity="0.06"/>
<path d="M124.827 39L118.635 24H124.827H131.02L137.212 39L131.02 54H124.827H118.635L124.827 39Z" fill="white" fill-opacity="0.06"/>
<path d="M0.732581 9L-5.45978 -6H0.732581H6.92494L13.1173 9L6.92494 24H0.732581H-5.45978L0.732581 9Z" fill="white" fill-opacity="0.06"/>
<path d="M23.2727 9L17.0803 -6H23.2727H29.465L35.6574 9L29.465 24H23.2727H17.0803L23.2727 9Z" fill="white" fill-opacity="0.06"/>
<path d="M45.8129 9L39.6205 -6H45.8129H52.0053L58.1976 9L52.0053 24H45.8129H39.6205L45.8129 9Z" fill="white" fill-opacity="0.06"/>
<path d="M68.3531 9L62.1608 -6H68.3531H74.5455L80.7378 9L74.5455 24H68.3531H62.1608L68.3531 9Z" fill="white" fill-opacity="0.06"/>
<path d="M90.8933 9L84.7009 -6H90.8933H97.0856L103.278 9L97.0856 24H90.8933H84.7009L90.8933 9Z" fill="white" fill-opacity="0.06"/>
<path d="M113.433 9L107.241 -6H113.433H119.626L125.818 9L119.626 24H113.433H107.241L113.433 9Z" fill="white" fill-opacity="0.06"/>
<path d="M135.974 9L129.781 -6H135.974H142.166L148.358 9L142.166 24H135.974H129.781L135.974 9Z" fill="white" fill-opacity="0.06"/>
<path d="M-10.166 99L-16.3584 84H-10.166H-3.97368L2.21868 99L-3.97368 114H-10.166H-16.3584L-10.166 99Z" fill="white" fill-opacity="0.06"/>
<path d="M12.3742 99L6.18182 84H12.3742H18.5665L24.7589 99L18.5665 114H12.3742H6.18182L12.3742 99Z" fill="white" fill-opacity="0.06"/>
<path d="M34.9144 99L28.722 84H34.9144H41.1068L47.2991 99L41.1068 114H34.9144H28.722L34.9144 99Z" fill="white" fill-opacity="0.06"/>
<path d="M57.4545 99L51.2621 84H57.4545H63.6469L69.8392 99L63.6469 114H57.4545H51.2621L57.4545 99Z" fill="white" fill-opacity="0.06"/>
<path d="M79.9947 99L73.8024 84H79.9947H86.1871L92.3794 99L86.1871 114H79.9947H73.8024L79.9947 99Z" fill="white" fill-opacity="0.06"/>
<path d="M102.535 99L96.3425 84H102.535H108.727L114.92 99L108.727 114H102.535H96.3425L102.535 99Z" fill="white" fill-opacity="0.06"/>
<path d="M125.075 99L118.883 84H125.075H131.267L137.46 99L131.267 114H125.075H118.883L125.075 99Z" fill="white" fill-opacity="0.06"/>
</g>
<defs>
<clipPath id="clip0_35_8236">
<rect width="132" height="108" rx="8" fill="white"/>
</clipPath>
</defs>
</svg>
