<svg width="30" height="32" viewBox="0 0 30 32" fill="none" xmlns="http://www.w3.org/2000/svg">
<path d="M24.0532 5.96044C23.1587 6.01156 22.2615 5.93978 21.3865 5.74711C20.3311 5.38571 19.344 4.84934 18.4665 4.16044C17.7158 3.62829 17.003 3.04467 16.3332 2.41377C16.0492 2.14852 15.6751 2.00098 15.2865 2.00098C14.8979 2.00098 14.5238 2.14852 14.2398 2.41377C13.5878 3.02472 12.9023 3.59894 12.1865 4.13377C11.3036 4.83173 10.3128 5.38115 9.25317 5.76044C8.25656 5.98562 7.23276 6.06645 6.21317 6.00044C5.37831 5.96587 4.54596 5.88575 3.71983 5.76044C3.51796 5.73051 3.31213 5.74155 3.11461 5.79288C2.91709 5.84421 2.73193 5.93479 2.57018 6.05922C2.40842 6.18365 2.27337 6.33938 2.1731 6.51712C2.07282 6.69486 2.00936 6.89098 1.9865 7.09377C1.91983 7.73377 1.7465 9.40044 1.6665 11.2538C1.55439 13.1055 1.67082 14.9639 2.01317 16.7871C2.97856 19.8077 4.7541 22.5056 7.1465 24.5871C9.04808 26.3808 11.11 27.9964 13.3065 29.4138C13.8951 29.8179 14.5924 30.0343 15.3065 30.0343C16.0206 30.0343 16.7178 29.8179 17.3065 29.4138C19.3865 27.9595 21.332 26.3218 23.1198 24.5204C25.3722 22.4237 27.0402 19.777 27.9598 16.8404" stroke="#1A202C" stroke-width="2.5" stroke-linecap="round" stroke-linejoin="round"/>
<path d="M13.6667 14.6667L17.48 18.48C17.5037 18.5059 17.5326 18.5265 17.5647 18.5406C17.5968 18.5548 17.6316 18.5621 17.6667 18.5621C17.7018 18.5621 17.7365 18.5548 17.7686 18.5406C17.8007 18.5265 17.8296 18.5059 17.8533 18.48L28.3333 8" stroke="#3563E9" stroke-width="2.5" stroke-linecap="round" stroke-linejoin="round"/>
</svg>
